<mxfile host="app.diagrams.net" modified="2021-10-04T20:17:57.203Z" agent="5.0 (X11; Linux x86_64) AppleWebKit/537.36 (KHTML, like Gecko) Chrome/94.0.4606.71 Safari/537.36" etag="_bU0QPDYPyOvMj51vivm" version="15.3.8" type="github">
  <diagram id="kgpKYQtTHZ0yAKxKKP6v" name="Page-1">
    <mxGraphModel dx="723" dy="300" grid="1" gridSize="10" guides="1" tooltips="1" connect="1" arrows="1" fold="1" page="1" pageScale="1" pageWidth="850" pageHeight="1100" math="0" shadow="0">
      <root>
        <mxCell id="0" />
        <mxCell id="1" parent="0" />
        <mxCell id="3nuBFxr9cyL0pnOWT2aG-1" value=":User" style="shape=umlLifeline;perimeter=lifelinePerimeter;container=1;collapsible=0;recursiveResize=0;rounded=0;shadow=0;strokeWidth=1;" parent="1" vertex="1">
          <mxGeometry x="120" y="80" width="100" height="300" as="geometry" />
        </mxCell>
        <mxCell id="3nuBFxr9cyL0pnOWT2aG-2" value="" style="points=[];perimeter=orthogonalPerimeter;rounded=0;shadow=0;strokeWidth=1;" parent="3nuBFxr9cyL0pnOWT2aG-1" vertex="1">
          <mxGeometry x="45" y="70" width="10" height="60" as="geometry" />
        </mxCell>
        <mxCell id="3nuBFxr9cyL0pnOWT2aG-3" value="dispatch" style="verticalAlign=bottom;startArrow=oval;endArrow=block;startSize=8;shadow=0;strokeWidth=1;" parent="3nuBFxr9cyL0pnOWT2aG-1" edge="1">
          <mxGeometry relative="1" as="geometry">
            <mxPoint x="-15" y="77" as="sourcePoint" />
            <mxPoint x="45" y="77" as="targetPoint" />
          </mxGeometry>
        </mxCell>
        <mxCell id="PVal0CWn2MH94PP9ja7O-8" value="" style="points=[];perimeter=orthogonalPerimeter;rounded=0;shadow=0;strokeWidth=1;" vertex="1" parent="3nuBFxr9cyL0pnOWT2aG-1">
          <mxGeometry x="45" y="150" width="10" height="140" as="geometry" />
        </mxCell>
        <mxCell id="3nuBFxr9cyL0pnOWT2aG-5" value=":App" style="shape=umlLifeline;perimeter=lifelinePerimeter;container=1;collapsible=0;recursiveResize=0;rounded=0;shadow=0;strokeWidth=1;" parent="1" vertex="1">
          <mxGeometry x="300" y="80" width="100" height="300" as="geometry" />
        </mxCell>
        <mxCell id="3nuBFxr9cyL0pnOWT2aG-6" value="" style="points=[];perimeter=orthogonalPerimeter;rounded=0;shadow=0;strokeWidth=1;" parent="3nuBFxr9cyL0pnOWT2aG-5" vertex="1">
          <mxGeometry x="45" y="70" width="10" height="60" as="geometry" />
        </mxCell>
        <mxCell id="3nuBFxr9cyL0pnOWT2aG-4" value="" style="points=[];perimeter=orthogonalPerimeter;rounded=0;shadow=0;strokeWidth=1;" parent="3nuBFxr9cyL0pnOWT2aG-5" vertex="1">
          <mxGeometry x="55" y="210" width="10" height="60" as="geometry" />
        </mxCell>
        <mxCell id="PVal0CWn2MH94PP9ja7O-9" value="" style="points=[];perimeter=orthogonalPerimeter;rounded=0;shadow=0;strokeWidth=1;" vertex="1" parent="3nuBFxr9cyL0pnOWT2aG-5">
          <mxGeometry x="45" y="150" width="10" height="140" as="geometry" />
        </mxCell>
        <mxCell id="PVal0CWn2MH94PP9ja7O-14" value="" style="endArrow=classic;html=1;exitX=0.933;exitY=0.156;exitDx=0;exitDy=0;exitPerimeter=0;entryX=0.967;entryY=0.833;entryDx=0;entryDy=0;entryPerimeter=0;" edge="1" parent="3nuBFxr9cyL0pnOWT2aG-5" source="3nuBFxr9cyL0pnOWT2aG-4" target="3nuBFxr9cyL0pnOWT2aG-4">
          <mxGeometry width="50" height="50" relative="1" as="geometry">
            <mxPoint x="90" y="260" as="sourcePoint" />
            <mxPoint x="140" y="210" as="targetPoint" />
            <Array as="points">
              <mxPoint x="90" y="219" />
              <mxPoint x="90" y="260" />
            </Array>
          </mxGeometry>
        </mxCell>
        <mxCell id="PVal0CWn2MH94PP9ja7O-15" value="Compare&lt;br&gt;results" style="edgeLabel;html=1;align=center;verticalAlign=middle;resizable=0;points=[];" vertex="1" connectable="0" parent="PVal0CWn2MH94PP9ja7O-14">
          <mxGeometry x="-0.1303" relative="1" as="geometry">
            <mxPoint y="7" as="offset" />
          </mxGeometry>
        </mxCell>
        <mxCell id="3nuBFxr9cyL0pnOWT2aG-8" value="Initiate AP scan" style="verticalAlign=bottom;endArrow=block;entryX=-0.043;entryY=0.105;shadow=0;strokeWidth=1;exitX=1.043;exitY=0.105;exitDx=0;exitDy=0;exitPerimeter=0;entryDx=0;entryDy=0;entryPerimeter=0;" parent="1" edge="1">
          <mxGeometry relative="1" as="geometry">
            <mxPoint x="175.43000000000006" y="161.3" as="sourcePoint" />
            <mxPoint x="344.56999999999994" y="161.3" as="targetPoint" />
          </mxGeometry>
        </mxCell>
        <mxCell id="PVal0CWn2MH94PP9ja7O-1" value=":Database" style="shape=umlLifeline;perimeter=lifelinePerimeter;container=1;collapsible=0;recursiveResize=0;rounded=0;shadow=0;strokeWidth=1;" vertex="1" parent="1">
          <mxGeometry x="480" y="80" width="100" height="300" as="geometry" />
        </mxCell>
        <mxCell id="PVal0CWn2MH94PP9ja7O-2" value="" style="points=[];perimeter=orthogonalPerimeter;rounded=0;shadow=0;strokeWidth=1;" vertex="1" parent="PVal0CWn2MH94PP9ja7O-1">
          <mxGeometry x="45" y="80" width="10" height="30" as="geometry" />
        </mxCell>
        <mxCell id="PVal0CWn2MH94PP9ja7O-11" value="" style="points=[];perimeter=orthogonalPerimeter;rounded=0;shadow=0;strokeWidth=1;" vertex="1" parent="PVal0CWn2MH94PP9ja7O-1">
          <mxGeometry x="45" y="150" width="10" height="60" as="geometry" />
        </mxCell>
        <mxCell id="PVal0CWn2MH94PP9ja7O-3" value="" style="endArrow=classic;html=1;exitX=1.2;exitY=0.088;exitDx=0;exitDy=0;exitPerimeter=0;entryX=-0.157;entryY=0.467;entryDx=0;entryDy=0;entryPerimeter=0;" edge="1" parent="1" target="PVal0CWn2MH94PP9ja7O-2">
          <mxGeometry width="50" height="50" relative="1" as="geometry">
            <mxPoint x="355" y="174.08000000000004" as="sourcePoint" />
            <mxPoint x="528" y="173.89999999999998" as="targetPoint" />
          </mxGeometry>
        </mxCell>
        <mxCell id="PVal0CWn2MH94PP9ja7O-4" value="Post to DB" style="edgeLabel;html=1;align=center;verticalAlign=middle;resizable=0;points=[];" vertex="1" connectable="0" parent="PVal0CWn2MH94PP9ja7O-3">
          <mxGeometry x="-0.3873" relative="1" as="geometry">
            <mxPoint x="30" y="-8" as="offset" />
          </mxGeometry>
        </mxCell>
        <mxCell id="PVal0CWn2MH94PP9ja7O-5" value="" style="endArrow=classic;html=1;entryX=1.157;entryY=0.771;entryDx=0;entryDy=0;entryPerimeter=0;" edge="1" parent="1" target="3nuBFxr9cyL0pnOWT2aG-2">
          <mxGeometry width="50" height="50" relative="1" as="geometry">
            <mxPoint x="345.5" y="196.92999999999995" as="sourcePoint" />
            <mxPoint x="173" y="196.92999999999995" as="targetPoint" />
          </mxGeometry>
        </mxCell>
        <mxCell id="PVal0CWn2MH94PP9ja7O-6" value="Return scan results" style="edgeLabel;html=1;align=center;verticalAlign=middle;resizable=0;points=[];" vertex="1" connectable="0" parent="PVal0CWn2MH94PP9ja7O-5">
          <mxGeometry x="0.2464" relative="1" as="geometry">
            <mxPoint x="19" as="offset" />
          </mxGeometry>
        </mxCell>
        <mxCell id="PVal0CWn2MH94PP9ja7O-7" value="Initiate Detection" style="verticalAlign=bottom;endArrow=block;shadow=0;strokeWidth=1;exitX=1.1;exitY=0.069;exitDx=0;exitDy=0;exitPerimeter=0;entryX=-0.043;entryY=0.069;entryDx=0;entryDy=0;entryPerimeter=0;" edge="1" parent="1" source="PVal0CWn2MH94PP9ja7O-8" target="PVal0CWn2MH94PP9ja7O-9">
          <mxGeometry relative="1" as="geometry">
            <mxPoint x="240" y="320" as="sourcePoint" />
            <mxPoint x="350" y="240" as="targetPoint" />
          </mxGeometry>
        </mxCell>
        <mxCell id="PVal0CWn2MH94PP9ja7O-10" value="Fetch AP scan results" style="verticalAlign=bottom;endArrow=block;shadow=0;strokeWidth=1;exitX=0.986;exitY=0.155;exitDx=0;exitDy=0;exitPerimeter=0;entryX=-0.033;entryY=0.367;entryDx=0;entryDy=0;entryPerimeter=0;" edge="1" parent="1" source="PVal0CWn2MH94PP9ja7O-9" target="PVal0CWn2MH94PP9ja7O-11">
          <mxGeometry relative="1" as="geometry">
            <mxPoint x="380" y="259.5" as="sourcePoint" />
            <mxPoint x="560.5" y="259.5" as="targetPoint" />
          </mxGeometry>
        </mxCell>
        <mxCell id="PVal0CWn2MH94PP9ja7O-12" value="" style="endArrow=classic;html=1;exitX=-0.133;exitY=0.661;exitDx=0;exitDy=0;exitPerimeter=0;entryX=1.067;entryY=0.661;entryDx=0;entryDy=0;entryPerimeter=0;" edge="1" parent="1">
          <mxGeometry width="50" height="50" relative="1" as="geometry">
            <mxPoint x="523.6700000000001" y="276.66" as="sourcePoint" />
            <mxPoint x="355.66999999999996" y="276.66" as="targetPoint" />
          </mxGeometry>
        </mxCell>
        <mxCell id="PVal0CWn2MH94PP9ja7O-13" value="Return AP results" style="edgeLabel;html=1;align=center;verticalAlign=middle;resizable=0;points=[];" vertex="1" connectable="0" parent="PVal0CWn2MH94PP9ja7O-12">
          <mxGeometry x="0.1072" relative="1" as="geometry">
            <mxPoint as="offset" />
          </mxGeometry>
        </mxCell>
        <mxCell id="PVal0CWn2MH94PP9ja7O-16" value="" style="endArrow=classic;html=1;entryX=1.1;entryY=0.943;entryDx=0;entryDy=0;entryPerimeter=0;" edge="1" parent="1" source="PVal0CWn2MH94PP9ja7O-9" target="PVal0CWn2MH94PP9ja7O-8">
          <mxGeometry width="50" height="50" relative="1" as="geometry">
            <mxPoint x="290" y="370" as="sourcePoint" />
            <mxPoint x="330" y="300" as="targetPoint" />
          </mxGeometry>
        </mxCell>
        <mxCell id="PVal0CWn2MH94PP9ja7O-17" value="Return detection results" style="edgeLabel;html=1;align=center;verticalAlign=middle;resizable=0;points=[];" vertex="1" connectable="0" parent="PVal0CWn2MH94PP9ja7O-16">
          <mxGeometry x="0.0871" relative="1" as="geometry">
            <mxPoint x="10" as="offset" />
          </mxGeometry>
        </mxCell>
      </root>
    </mxGraphModel>
  </diagram>
</mxfile>
